<svg xmlns="http://www.w3.org/2000/svg" viewBox="0 0 190 44" fill="none">
  <path d="M15.876 10.590L10.818 10.590L11.520 8.664L17.028 8.664Q19.296 8.664 20.682 9.303Q22.068 9.942 22.707 11.031Q23.346 12.120 23.346 13.452L23.346 13.452Q23.346 15.252 22.500 16.683Q21.654 18.114 20.034 19.014Q18.414 19.914 16.092 20.094L16.092 20.094L15.984 19.806Q18.666 19.986 20.043 21.336Q21.420 22.686 21.420 24.720L21.420 24.720Q21.420 26.898 20.268 28.788Q19.116 30.678 16.821 31.839Q14.526 33 11.052 33L11.052 33L4.104 33L4.662 31.056L10.314 31.056Q12.600 31.056 14.202 30.246Q15.804 29.436 16.659 27.960Q17.514 26.484 17.514 24.504L17.514 24.504Q17.514 22.920 16.524 21.984Q15.534 21.048 13.302 21.048L13.302 21.048L7.632 21.048L8.298 19.122L14.040 19.122Q15.768 19.122 17.037 18.411Q18.306 17.700 19.008 16.458Q19.710 15.216 19.710 13.650L19.710 13.650Q19.710 12.660 19.287 11.976Q18.864 11.292 18.009 10.941Q17.154 10.590 15.876 10.590L15.876 10.590ZM2.466 31.146L8.802 10.482L6.318 9.564L6.588 8.664L13.086 8.664L5.652 33L-0.810 33L-0.522 32.100L2.466 31.146ZM24.228 33L28.350 19.392Q28.296 19.392 28.233 19.392Q28.170 19.392 28.098 19.392L28.098 19.392Q27.360 19.392 26.712 19.635Q26.064 19.878 25.443 20.508Q24.822 21.138 24.138 22.326L24.138 22.326L23.490 22.056Q24.210 19.986 25.137 18.816Q26.064 17.646 27.180 17.169Q28.296 16.692 29.520 16.692L29.520 16.692Q29.952 16.692 30.330 16.728Q30.708 16.764 31.086 16.836Q31.464 16.908 31.860 16.998L31.860 16.998L29.664 24.198L29.682 24.108Q30.978 21.444 32.175 19.806Q33.372 18.168 34.542 17.421Q35.712 16.674 36.882 16.674L36.882 16.674Q38.052 16.674 38.610 17.250Q39.168 17.826 39.168 18.708L39.168 18.708Q39.168 19.446 38.808 19.995Q38.448 20.544 37.899 20.850Q37.350 21.156 36.774 21.156L36.774 21.156Q36.612 21.156 36.405 20.976Q36.198 20.796 35.928 20.436L35.928 20.436Q35.640 20.058 35.379 19.851Q35.118 19.644 34.830 19.644L34.830 19.644Q34.344 19.644 33.750 20.067Q33.156 20.490 32.517 21.282Q31.878 22.074 31.239 23.181Q30.600 24.288 30.006 25.647Q29.412 27.006 28.944 28.554L28.944 28.554L27.576 33L24.228 33ZM46.926 18.186L46.926 18.186Q45.936 18.186 45.117 18.744Q44.298 19.302 43.641 20.256Q42.984 21.210 42.534 22.398Q42.084 23.586 41.841 24.864Q41.598 26.142 41.598 27.348L41.598 27.348Q41.598 29.274 42.354 30.075Q43.110 30.876 44.460 30.876L44.460 30.876Q45.360 30.876 46.143 30.579Q46.926 30.282 47.637 29.571Q48.348 28.860 49.032 27.582L49.032 27.582L50.220 27.582Q49.248 29.814 48.213 31.083Q47.178 32.352 45.981 32.874Q44.784 33.396 43.272 33.396L43.272 33.396Q41.652 33.396 40.491 32.793Q39.330 32.190 38.727 31.029Q38.124 29.868 38.124 28.176L38.124 28.176Q38.124 26.232 38.601 24.495Q39.078 22.758 39.969 21.336Q40.860 19.914 42.030 18.870Q43.200 17.826 44.595 17.250Q45.990 16.674 47.502 16.674L47.502 16.674Q48.978 16.674 49.896 17.151Q50.814 17.628 51.237 18.402Q51.660 19.176 51.660 20.094L51.660 20.094Q51.660 20.922 51.336 21.732Q51.012 22.542 50.490 23.082L50.490 23.082Q49.356 23.514 48.177 23.919Q46.998 24.324 45.801 24.693Q44.604 25.062 43.407 25.404Q42.210 25.746 41.040 26.034L41.040 26.034L41.094 24.594Q43.002 24.108 44.334 23.640Q45.666 23.172 46.512 22.731Q47.358 22.290 47.817 21.840Q48.276 21.390 48.447 20.913Q48.618 20.436 48.618 19.914L48.618 19.914Q48.618 19.392 48.429 19.005Q48.240 18.618 47.862 18.402Q47.484 18.186 46.926 18.186ZM61.290 31.866L61.290 31.866L63.306 25.890L63.612 25.890Q62.154 28.140 60.984 29.598Q59.814 31.056 58.851 31.875Q57.888 32.694 57.051 33.027Q56.214 33.360 55.422 33.360L55.422 33.360Q54.342 33.360 53.532 32.955Q52.722 32.550 52.263 31.722Q51.804 30.894 51.804 29.580L51.804 29.580Q51.804 28.122 52.353 26.403Q52.902 24.684 53.883 23.010Q54.864 21.336 56.178 19.950Q57.492 18.564 59.058 17.727Q60.624 16.890 62.316 16.890L62.316 16.890Q63.558 16.890 64.386 17.403Q65.214 17.916 65.826 18.978L65.826 18.978L65.142 20.040Q64.890 19.410 64.332 19.005Q63.774 18.600 62.910 18.600L62.910 18.600Q61.686 18.600 60.561 19.383Q59.436 20.166 58.482 21.426Q57.528 22.686 56.826 24.135Q56.124 25.584 55.728 26.925Q55.332 28.266 55.332 29.220L55.332 29.220Q55.332 30.012 55.755 30.399Q56.178 30.786 56.898 30.786L56.898 30.786Q57.546 30.786 58.473 30.228Q59.400 29.670 60.390 28.689Q61.380 27.708 62.244 26.394Q63.108 25.080 63.630 23.586L63.630 23.586L65.574 17.970L67.716 17.070L69.192 17.070L64.386 31.704L63.882 30.732Q64.566 30.804 65.394 30.570Q66.222 30.336 67.122 29.814Q68.022 29.292 68.940 28.482L68.940 28.482L69.552 29.220Q67.446 31.524 65.826 32.460Q64.206 33.396 62.856 33.396L62.856 33.396Q61.830 33.396 61.425 33.009Q61.020 32.622 61.290 31.866ZM83.934 18.852L83.268 19.932Q83.016 19.284 82.449 18.879Q81.882 18.474 81.036 18.474L81.036 18.474Q79.776 18.474 78.633 19.266Q77.490 20.058 76.536 21.327Q75.582 22.596 74.871 24.054Q74.160 25.512 73.764 26.871Q73.368 28.230 73.368 29.184L73.368 29.184Q73.368 29.994 73.791 30.390Q74.214 30.786 74.934 30.786L74.934 30.786Q75.492 30.786 76.248 30.399Q77.004 30.012 77.832 29.310Q78.660 28.608 79.470 27.645Q80.280 26.682 80.946 25.512Q81.612 24.342 82.026 23.046L82.026 23.046L85.932 10.590Q85.626 10.266 85.248 9.978Q84.870 9.690 84.438 9.438Q84.006 9.186 83.502 8.970L83.502 8.970L83.718 8.268L89.748 7.224L90.288 7.224L82.512 31.704L81.990 30.732Q82.692 30.804 83.520 30.570Q84.348 30.336 85.248 29.814Q86.148 29.292 87.066 28.482L87.066 28.482L87.678 29.220Q85.572 31.524 83.952 32.460Q82.332 33.396 80.982 33.396L80.982 33.396Q79.956 33.396 79.542 33.009Q79.128 32.622 79.398 31.866L79.398 31.866L81.414 25.890L81.720 25.890Q80.244 28.140 79.065 29.598Q77.886 31.056 76.923 31.875Q75.960 32.694 75.114 33.027Q74.268 33.360 73.458 33.360L73.458 33.360Q72.396 33.360 71.577 32.955Q70.758 32.550 70.299 31.704Q69.840 30.858 69.840 29.544L69.840 29.544Q69.840 28.068 70.389 26.340Q70.938 24.612 71.928 22.920Q72.918 21.228 74.250 19.833Q75.582 18.438 77.148 17.592Q78.714 16.746 80.424 16.746L80.424 16.746Q81.684 16.746 82.512 17.268Q83.340 17.790 83.934 18.852L83.934 18.852ZM92.664 26.178L92.358 27.204Q92.124 27.924 92.025 28.545Q91.926 29.166 91.926 29.670L91.926 29.670Q91.926 30.786 92.448 31.344Q92.970 31.902 93.960 31.902L93.960 31.902Q94.896 31.902 95.868 31.299Q96.840 30.696 97.704 29.661Q98.568 28.626 99.252 27.321Q99.936 26.016 100.332 24.603Q100.728 23.190 100.728 21.822L100.728 21.822Q100.728 20.652 100.260 20.058Q99.792 19.464 98.838 19.464L98.838 19.464Q98.208 19.464 97.488 19.824Q96.768 20.184 96.048 20.832Q95.328 21.480 94.671 22.326Q94.014 23.172 93.492 24.153Q92.970 25.134 92.664 26.178L92.664 26.178ZM89.370 26.430L94.140 10.554Q93.798 10.248 93.411 9.978Q93.024 9.708 92.592 9.456Q92.160 9.204 91.638 8.988L91.638 8.988L91.836 8.286L97.866 7.224L98.388 7.224L93.348 23.208L93.258 22.794Q94.626 20.616 95.895 19.266Q97.164 17.916 98.352 17.295Q99.540 16.674 100.602 16.674L100.602 16.674Q102.438 16.674 103.410 17.880Q104.382 19.086 104.382 20.958L104.382 20.958Q104.382 22.812 103.815 24.612Q103.248 26.412 102.231 27.996Q101.214 29.580 99.882 30.795Q98.550 32.010 97.011 32.703Q95.472 33.396 93.870 33.396L93.870 33.396Q91.584 33.396 90.288 32.136Q88.992 30.876 88.992 28.788L88.992 28.788Q88.992 28.248 89.091 27.654Q89.190 27.060 89.370 26.430L89.370 26.430ZM114.732 16.674L114.732 16.674Q116.478 16.674 117.693 17.367Q118.908 18.060 119.547 19.338Q120.186 20.616 120.186 22.362L120.186 22.362Q120.186 24.558 119.484 26.547Q118.782 28.536 117.531 30.075Q116.280 31.614 114.597 32.505Q112.914 33.396 110.952 33.396L110.952 33.396Q109.224 33.396 108.000 32.703Q106.776 32.010 106.137 30.732Q105.498 29.454 105.498 27.708L105.498 27.708Q105.498 25.512 106.209 23.532Q106.920 21.552 108.171 20.004Q109.422 18.456 111.096 17.565Q112.770 16.674 114.732 16.674ZM111.006 31.812L111.006 31.812Q111.924 31.812 112.788 31.200Q113.652 30.588 114.381 29.526Q115.110 28.464 115.659 27.123Q116.208 25.782 116.514 24.306Q116.820 22.830 116.820 21.390L116.820 21.390Q116.820 19.770 116.298 19.023Q115.776 18.276 114.696 18.276L114.696 18.276Q113.760 18.276 112.905 18.888Q112.050 19.500 111.312 20.553Q110.574 21.606 110.025 22.956Q109.476 24.306 109.170 25.782Q108.864 27.258 108.864 28.680L108.864 28.680Q108.864 30.282 109.395 31.047Q109.926 31.812 111.006 31.812ZM132.660 22.560L130.500 25.512L129.510 25.872L126.342 30.228Q125.460 31.434 124.722 32.127Q123.984 32.820 123.282 33.108Q122.580 33.396 121.788 33.396L121.788 33.396Q120.672 33.396 120.105 32.793Q119.538 32.190 119.538 31.326L119.538 31.326Q119.538 30.624 119.853 30.102Q120.168 29.580 120.654 29.292Q121.140 29.004 121.626 29.004L121.626 29.004Q121.860 29.004 122.058 29.184Q122.256 29.364 122.508 29.688L122.508 29.688Q122.742 30.012 122.967 30.165Q123.192 30.318 123.426 30.318L123.426 30.318Q123.786 30.318 124.227 30.075Q124.668 29.832 125.289 29.211Q125.910 28.590 126.720 27.492L126.720 27.492L129.060 24.360L130.068 24L133.038 19.878Q133.920 18.672 134.667 17.979Q135.414 17.286 136.134 16.980Q136.854 16.674 137.628 16.674L137.628 16.674Q138.726 16.674 139.311 17.286Q139.896 17.898 139.896 18.744L139.896 18.744Q139.896 19.428 139.572 19.959Q139.248 20.490 138.771 20.778Q138.294 21.066 137.808 21.066L137.808 21.066Q137.592 21.066 137.403 20.922Q137.214 20.778 136.944 20.418L136.944 20.418Q136.674 20.058 136.449 19.905Q136.224 19.752 135.990 19.752L135.990 19.752Q135.612 19.752 135.135 20.013Q134.658 20.274 134.037 20.895Q133.416 21.516 132.660 22.560L132.660 22.560ZM136.854 27.042L137.772 27.240Q136.566 29.742 135.576 31.074Q134.586 32.406 133.650 32.901Q132.714 33.396 131.652 33.396L131.652 33.396Q131.112 33.396 130.761 33.243Q130.410 33.090 130.185 32.721Q129.960 32.352 129.798 31.722L129.798 31.722L127.152 20.022Q127.062 19.590 126.990 19.473Q126.918 19.356 126.756 19.356L126.756 19.356Q126.126 19.356 125.316 20.175Q124.506 20.994 123.678 23.028L123.678 23.028L122.670 22.848Q123.444 20.490 124.308 19.140Q125.172 17.790 126.144 17.232Q127.116 16.674 128.196 16.674L128.196 16.674Q128.718 16.674 129.060 16.836Q129.402 16.998 129.618 17.367Q129.834 17.736 129.978 18.366L129.978 18.366L132.552 29.886Q132.696 30.498 132.777 30.642Q132.858 30.786 133.074 30.786L133.074 30.786Q133.506 30.786 134.019 30.498Q134.532 30.210 135.216 29.391Q135.900 28.572 136.854 27.042L136.854 27.042Z" fill="#FAF6EE"/>
</svg>
